# Blender v2.93.1 OBJ File: ''
# www.blender.org
mtllib lollipop.mtl
o Lollipop_Circle.001
v 0.034675 0.478344 -0.166961
v 0.039252 -1.286052 -0.184040
v 0.034675 -1.286052 -0.166961
v 0.068834 0.534805 -0.201120
v 0.085914 0.478344 -0.196543
v 0.068834 0.478344 -0.201120
v 0.051755 0.478344 -0.196543
v 0.068834 -1.286052 -0.201120
v 0.051755 -1.286052 -0.196543
v 0.085914 0.534805 -0.196543
v 0.098417 0.478344 -0.184040
v 0.039252 -1.286052 -0.149881
v 0.034675 -1.300167 -0.166961
v 0.039252 -1.300167 -0.149881
v 0.051755 0.478344 -0.137378
v 0.051755 -1.286052 -0.137378
v 0.098417 0.534805 -0.184040
v 0.102993 0.478344 -0.166961
v 0.085914 -1.286052 -0.137378
v 0.068834 -1.300167 -0.132802
v 0.085914 -1.300167 -0.137378
v 0.068834 0.478344 -0.132802
v 0.068834 -1.286052 -0.132802
v 0.102993 0.534805 -0.166961
v 0.098417 0.478344 -0.149881
v 0.098417 -1.286052 -0.149881
v 0.098417 -1.300167 -0.149881
v 0.085914 0.478344 -0.137378
v 0.098417 0.534805 -0.149881
v 0.085914 0.534805 -0.137378
v 0.085914 -1.300167 -0.196543
v 0.068834 -1.300167 -0.201120
v 0.102993 -1.286052 -0.166961
v 0.068834 0.534805 -0.132802
v 0.098417 -1.286052 -0.184040
v 0.051755 0.534805 -0.137378
v 0.039252 0.478344 -0.149881
v 0.085914 -1.286052 -0.196543
v 0.039252 0.534805 -0.149881
v 0.039252 0.478344 -0.184040
v 0.034675 0.534805 -0.166961
v 0.039252 0.534805 -0.184040
v 0.051755 0.534805 -0.196543
v 0.102993 -1.300167 -0.166961
v 0.051755 -1.300167 -0.137378
v 0.051755 -1.300167 -0.196543
v 0.098417 -1.300167 -0.184040
v 0.039252 -1.300167 -0.184040
v 0.484496 0.688268 -0.211171
v 0.311345 0.515117 -0.103601
v 0.311345 0.515117 -0.211171
v -0.334866 1.161327 -0.211171
v -0.161714 1.334478 -0.103601
v -0.161714 1.334478 -0.211171
v 0.074815 0.451739 -0.211171
v 0.074815 1.397856 -0.211171
v 0.074815 1.397856 -0.103601
v 0.311344 1.334478 -0.103601
v 0.311344 1.334478 -0.211171
v -0.161714 0.515117 -0.103601
v -0.161714 0.515117 -0.211171
v 0.484496 1.161327 -0.103601
v 0.484496 1.161327 -0.211171
v -0.334866 0.688268 -0.103601
v -0.334866 0.688268 -0.211171
v 0.547874 0.924798 -0.103601
v 0.547874 0.924798 -0.211171
v -0.398243 0.924798 -0.103601
v -0.398243 0.924798 -0.211171
v 0.484496 0.688268 -0.103601
v -0.334866 1.161327 -0.103601
v 0.074815 1.161327 -0.103601
v 0.074815 1.161327 -0.211171
v 0.074815 0.924798 -0.103601
v 0.074815 0.924798 -0.211171
v 0.074815 0.688268 -0.103601
v 0.074815 0.451739 -0.103601
v 0.074815 0.688268 -0.211171
vt 0.485978 0.576370
vt 0.487638 0.084721
vt 0.485978 0.084721
vt 0.498370 0.593440
vt 0.504565 0.576370
vt 0.498370 0.576370
vt 0.492174 0.576370
vt 0.498370 0.084721
vt 0.492174 0.084721
vt 0.504565 0.593440
vt 0.509101 0.576370
vt 0.487638 0.084721
vt 0.485978 0.080453
vt 0.487638 0.080453
vt 0.492174 0.576370
vt 0.492174 0.084721
vt 0.509101 0.593440
vt 0.510761 0.576370
vt 0.504565 0.084721
vt 0.498370 0.080453
vt 0.504565 0.080453
vt 0.498370 0.576370
vt 0.498370 0.084721
vt 0.510761 0.593440
vt 0.509101 0.576370
vt 0.509101 0.084721
vt 0.509101 0.080453
vt 0.504565 0.576370
vt 0.509101 0.593440
vt 0.504565 0.593440
vt 0.504565 0.080453
vt 0.498370 0.080453
vt 0.510761 0.084721
vt 0.498370 0.593440
vt 0.509101 0.084721
vt 0.492174 0.593440
vt 0.487638 0.576370
vt 0.504565 0.084721
vt 0.487638 0.593440
vt 0.487638 0.576370
vt 0.485978 0.593440
vt 0.487638 0.593440
vt 0.492174 0.593440
vt 0.510761 0.080453
vt 0.492174 0.080453
vt 0.492174 0.080453
vt 0.509101 0.080453
vt 0.487638 0.080453
vt 0.694585 0.678386
vt 0.616062 0.626037
vt 0.616062 0.626037
vt 0.323009 0.821405
vt 0.401532 0.873754
vt 0.401532 0.873754
vt 0.508797 0.606876
vt 0.508797 0.892915
vt 0.508797 0.892915
vt 0.616062 0.873754
vt 0.616062 0.873754
vt 0.401532 0.626037
vt 0.401532 0.626037
vt 0.694585 0.821405
vt 0.694585 0.821405
vt 0.323009 0.678385
vt 0.323009 0.678385
vt 0.723327 0.749896
vt 0.723327 0.749896
vt 0.294267 0.749896
vt 0.294267 0.749896
vt 0.694585 0.678386
vt 0.323009 0.821405
vt 0.508797 0.821405
vt 0.508797 0.821405
vt 0.508797 0.749895
vt 0.508797 0.749895
vt 0.508797 0.678386
vt 0.508797 0.606876
vt 0.508797 0.678386
vn -1.0000 0.0000 0.0000
vn -0.8660 0.0000 -0.5000
vn 0.0000 0.6532 -0.7572
vn 0.5000 0.0000 -0.8660
vn 0.0000 0.0000 -1.0000
vn -0.5000 0.0000 -0.8660
vn 0.3786 0.6532 -0.6557
vn 0.8660 0.0000 -0.5000
vn -0.8660 0.0000 0.5000
vn -0.7572 -0.6532 0.0000
vn -0.6557 -0.6532 0.3786
vn -0.5000 0.0000 0.8660
vn 0.6557 0.6532 -0.3786
vn 1.0000 0.0000 0.0000
vn 0.5000 0.0000 0.8660
vn 0.0000 -0.6532 0.7571
vn 0.3786 -0.6532 0.6557
vn 0.0000 0.0000 1.0000
vn 0.7571 0.6532 0.0000
vn 0.8660 0.0000 0.5000
vn 0.6557 -0.6532 0.3786
vn 0.6557 0.6532 0.3786
vn 0.3786 0.6532 0.6557
vn 0.3786 -0.6532 -0.6557
vn 0.0000 -0.6532 -0.7572
vn 0.0000 0.6532 0.7571
vn -0.3786 0.6532 0.6557
vn -0.6557 0.6532 0.3786
vn -0.7572 0.6532 0.0000
vn -0.6557 0.6532 -0.3786
vn -0.3786 0.6532 -0.6557
vn 0.7571 -0.6532 0.0000
vn -0.3786 -0.6532 0.6557
vn -0.3786 -0.6532 -0.6557
vn 0.6557 -0.6532 -0.3786
vn -0.6557 -0.6532 -0.3786
vn 0.6557 -0.3786 -0.6532
vn 0.3786 -0.6557 0.6532
vn 0.3786 -0.6557 -0.6532
vn -0.6557 0.3786 -0.6532
vn -0.3786 0.6557 0.6532
vn -0.3786 0.6557 -0.6532
vn 0.0000 -0.7571 -0.6532
vn 0.0000 0.7571 -0.6532
vn 0.0000 0.7571 0.6532
vn 0.3786 0.6557 0.6532
vn 0.3786 0.6557 -0.6532
vn -0.3786 -0.6557 0.6532
vn -0.3786 -0.6557 -0.6532
vn 0.6557 0.3786 0.6532
vn 0.6557 0.3786 -0.6532
vn -0.6557 -0.3786 0.6532
vn -0.6557 -0.3786 -0.6532
vn 0.7571 0.0000 0.6532
vn 0.7571 0.0000 -0.6532
vn -0.7571 0.0000 0.6532
vn -0.7571 0.0000 -0.6532
vn 0.6557 -0.3786 0.6532
vn -0.6557 0.3786 0.6532
vn 0.0000 -0.7571 0.6532
usemtl Material.001
s 1
f 1/1/1 2/2/2 3/3/1
f 4/4/3 5/5/4 6/6/5
f 7/7/6 8/8/5 9/9/6
f 10/10/7 11/11/8 5/5/4
f 12/12/9 13/13/10 14/14/11
f 15/15/12 12/12/9 16/16/12
f 17/17/13 18/18/14 11/11/8
f 19/19/15 20/20/16 21/21/17
f 22/22/18 16/16/12 23/23/18
f 24/24/19 25/25/20 18/18/14
f 26/26/20 21/21/17 27/27/21
f 28/28/15 23/23/18 19/19/15
f 29/29/22 28/28/15 25/25/20
f 25/25/20 19/19/15 26/26/20
f 30/30/23 22/22/18 28/28/15
f 8/8/5 31/31/24 32/32/25
f 18/18/14 26/26/20 33/33/14
f 34/34/26 15/15/12 22/22/18
f 11/11/8 33/33/14 35/35/8
f 36/36/27 37/37/9 15/15/12
f 5/5/4 35/35/8 38/38/4
f 39/39/28 1/1/1 37/37/9
f 40/40/2 9/9/6 2/2/2
f 6/6/5 38/38/4 8/8/5
f 41/41/29 40/40/2 1/1/1
f 42/42/30 34/34/26 17/17/13
f 43/43/31 6/6/5 7/7/6
f 42/42/30 7/7/6 40/40/2
f 37/37/9 3/3/1 12/12/9
f 44/44/32 45/45/33 46/46/34
f 38/38/4 47/47/35 31/31/24
f 35/35/8 44/44/32 47/47/35
f 3/3/1 48/48/36 13/13/10
f 16/16/12 14/14/11 45/45/33
f 23/23/18 45/45/33 20/20/16
f 33/33/14 27/27/21 44/44/32
f 9/9/6 32/32/25 46/46/34
f 2/2/2 46/46/34 48/48/36
f 49/49/37 50/50/38 51/51/39
f 52/52/40 53/53/41 54/54/42
f 50/50/38 55/55/43 51/51/39
f 56/56/44 53/53/41 57/57/45
f 56/56/44 58/58/46 59/59/47
f 55/55/43 60/60/48 61/61/49
f 59/59/47 62/62/50 63/63/51
f 61/61/49 64/64/52 65/65/53
f 63/63/51 66/66/54 67/67/55
f 65/65/53 68/68/56 69/69/57
f 67/67/55 70/70/58 49/49/37
f 69/69/57 71/71/59 52/52/40
f 58/58/46 72/72/18 62/62/50
f 59/59/47 73/73/5 56/56/44
f 71/71/59 74/74/18 72/72/18
f 75/75/5 63/63/51 67/67/55
f 74/74/18 62/62/50 72/72/18
f 53/53/41 72/72/18 57/57/45
f 54/54/42 73/73/5 52/52/40
f 52/52/40 75/75/5 69/69/57
f 60/60/48 76/76/18 64/64/52
f 50/50/38 76/76/18 77/77/60
f 70/70/58 74/74/18 76/76/18
f 74/74/18 64/64/52 76/76/18
f 75/75/5 65/65/53 69/69/57
f 61/61/49 78/78/5 55/55/43
f 51/51/39 78/78/5 49/49/37
f 49/49/37 75/75/5 67/67/55
f 1/1/1 40/40/2 2/2/2
f 4/4/3 10/10/7 5/5/4
f 7/7/6 6/6/5 8/8/5
f 10/10/7 17/17/13 11/11/8
f 12/12/9 3/3/1 13/13/10
f 15/15/12 37/37/9 12/12/9
f 17/17/13 24/24/19 18/18/14
f 19/19/15 23/23/18 20/20/16
f 22/22/18 15/15/12 16/16/12
f 24/24/19 29/29/22 25/25/20
f 26/26/20 19/19/15 21/21/17
f 28/28/15 22/22/18 23/23/18
f 29/29/22 30/30/23 28/28/15
f 25/25/20 28/28/15 19/19/15
f 30/30/23 34/34/26 22/22/18
f 8/8/5 38/38/4 31/31/24
f 18/18/14 25/25/20 26/26/20
f 34/34/26 36/36/27 15/15/12
f 11/11/8 18/18/14 33/33/14
f 36/36/27 39/39/28 37/37/9
f 5/5/4 11/11/8 35/35/8
f 39/39/28 41/41/29 1/1/1
f 40/40/2 7/7/6 9/9/6
f 6/6/5 5/5/4 38/38/4
f 41/41/29 42/42/30 40/40/2
f 17/17/13 10/10/7 4/4/3
f 4/4/3 43/43/31 17/17/13
f 43/43/31 42/42/30 17/17/13
f 42/42/30 41/41/29 34/34/26
f 41/41/29 39/39/28 34/34/26
f 39/39/28 36/36/27 34/34/26
f 34/34/26 30/30/23 29/29/22
f 29/29/22 24/24/19 34/34/26
f 24/24/19 17/17/13 34/34/26
f 43/43/31 4/4/3 6/6/5
f 42/42/30 43/43/31 7/7/6
f 37/37/9 1/1/1 3/3/1
f 46/46/34 32/32/25 31/31/24
f 31/31/24 47/47/35 44/44/32
f 44/44/32 27/27/21 21/21/17
f 21/21/17 20/20/16 44/44/32
f 20/20/16 45/45/33 44/44/32
f 45/45/33 14/14/11 13/13/10
f 13/13/10 48/48/36 45/45/33
f 48/48/36 46/46/34 45/45/33
f 46/46/34 31/31/24 44/44/32
f 38/38/4 35/35/8 47/47/35
f 35/35/8 33/33/14 44/44/32
f 3/3/1 2/2/2 48/48/36
f 16/16/12 12/12/9 14/14/11
f 23/23/18 16/16/12 45/45/33
f 33/33/14 26/26/20 27/27/21
f 9/9/6 8/8/5 32/32/25
f 2/2/2 9/9/6 46/46/34
f 49/49/37 70/70/58 50/50/38
f 52/52/40 71/71/59 53/53/41
f 50/50/38 77/77/60 55/55/43
f 56/56/44 54/54/42 53/53/41
f 56/56/44 57/57/45 58/58/46
f 55/55/43 77/77/60 60/60/48
f 59/59/47 58/58/46 62/62/50
f 61/61/49 60/60/48 64/64/52
f 63/63/51 62/62/50 66/66/54
f 65/65/53 64/64/52 68/68/56
f 67/67/55 66/66/54 70/70/58
f 69/69/57 68/68/56 71/71/59
f 58/58/46 57/57/45 72/72/18
f 59/59/47 63/63/51 73/73/5
f 71/71/59 68/68/56 74/74/18
f 75/75/5 73/73/5 63/63/51
f 74/74/18 66/66/54 62/62/50
f 53/53/41 71/71/59 72/72/18
f 54/54/42 56/56/44 73/73/5
f 52/52/40 73/73/5 75/75/5
f 60/60/48 77/77/60 76/76/18
f 50/50/38 70/70/58 76/76/18
f 70/70/58 66/66/54 74/74/18
f 74/74/18 68/68/56 64/64/52
f 75/75/5 78/78/5 65/65/53
f 61/61/49 65/65/53 78/78/5
f 51/51/39 55/55/43 78/78/5
f 49/49/37 78/78/5 75/75/5
